<?xml version="1.0" encoding="UTF-8"?>
<svg width="200" height="200" viewBox="0 0 200 200" fill="none" xmlns="http://www.w3.org/2000/svg">
  <!-- 渐变背景 -->
  <defs>
    <linearGradient id="bgGradient" x1="0" y1="0" x2="200" y2="200">
      <stop offset="0%" style="stop-color:#43A047"/>
      <stop offset="100%" style="stop-color:#1B5E20"/>
    </linearGradient>
  </defs>
  <circle cx="100" cy="100" r="100" fill="url(#bgGradient)"/>
  
  <!-- 头部 -->
  <circle cx="100" cy="70" r="35" fill="#FFB74D"/>
  
  <!-- 运动头带 -->
  <path d="M65 45C65 40 80 35 100 35C120 35 135 40 135 45" fill="#FF5722"/>
  <path d="M65 42H135" stroke="#FFFFFF" stroke-width="3"/>
  <path d="M95 35L105 35L100 45Z" fill="#FFFFFF"/>
  
  <!-- 汗水 -->
  <path d="M70 75L65 85" stroke="#81C784" stroke-width="2"/>
  <path d="M130 75L135 85" stroke="#81C784" stroke-width="2"/>
  
  <!-- 运动发型 -->
  <path d="M65 60C65 35 85 30 100 30C115 30 135 35 135 60" fill="#1A1A1A"/>
  <path d="M135 60C135 70 130 65 130 75" fill="#1A1A1A"/>
  <path d="M65 60C65 70 70 65 70 75" fill="#1A1A1A"/>
  
  <!-- 运动服 -->
  <path d="M60 140C60 110 80 100 100 100C120 100 140 110 140 140" fill="#FF5722"/>
  <path d="M85 105H115" stroke="#FFFFFF" stroke-width="4"/>
  <path d="M90 115H110" stroke="#FFFFFF" stroke-width="4"/>
  
  <!-- 运动号码 -->
  <text x="95" y="130" fill="#FFFFFF" font-family="Arial" font-weight="bold" font-size="20">23</text>
  
  <!-- 眉毛 -->
  <path d="M85 55L95 53" stroke="#1A1A1A" stroke-width="2" stroke-linecap="round"/>
  <path d="M105 53L115 55" stroke="#1A1A1A" stroke-width="2" stroke-linecap="round"/>
  
  <!-- 眼睛 -->
  <circle cx="90" cy="65" r="3" fill="#1A1A1A"/>
  <circle cx="110" cy="65" r="3" fill="#1A1A1A"/>
  <circle cx="88" cy="64" r="1" fill="#FFFFFF"/>
  <circle cx="108" cy="64" r="1" fill="#FFFFFF"/>
  
  <!-- 坚定的嘴巴 -->
  <path d="M90 80L110 80" stroke="#1A1A1A" stroke-width="2" stroke-linecap="round"/>
  
  <!-- 耳朵 -->
  <path d="M65 70C65 65 70 60 75 60C80 60 80 65 75 70C70 75 65 75 65 70Z" fill="#FFB74D"/>
  <path d="M135 70C135 65 130 60 125 60C120 60 120 65 125 70C130 75 135 75 135 70Z" fill="#FFB74D"/>
</svg> 