<?xml version="1.0" encoding="UTF-8"?>
<svg width="200" height="200" viewBox="0 0 200 200" fill="none" xmlns="http://www.w3.org/2000/svg">
  <!-- 背景 -->
  <rect width="200" height="200" rx="40" fill="#FEF2F2"/>
  
  <!-- 马赛克图案 - 红色系 -->
  <rect x="40" y="40" width="35" height="35" fill="#DC2626"/>
  <rect x="75" y="40" width="35" height="35" fill="#EF4444"/>
  <rect x="110" y="40" width="35" height="35" fill="#DC2626"/>
  <rect x="145" y="40" width="15" height="35" fill="#EF4444"/>
  
  <rect x="40" y="75" width="35" height="35" fill="#EF4444"/>
  <rect x="75" y="75" width="35" height="35" fill="#DC2626"/>
  <rect x="110" y="75" width="35" height="35" fill="#EF4444"/>
  <rect x="145" y="75" width="15" height="35" fill="#DC2626"/>
  
  <rect x="40" y="110" width="35" height="35" fill="#DC2626"/>
  <rect x="75" y="110" width="35" height="35" fill="#EF4444"/>
  <rect x="110" y="110" width="35" height="35" fill="#DC2626"/>
  <rect x="145" y="110" width="15" height="35" fill="#EF4444"/>
  
  <rect x="40" y="145" width="35" height="15" fill="#EF4444"/>
  <rect x="75" y="145" width="35" height="15" fill="#DC2626"/>
  <rect x="110" y="145" width="35" height="15" fill="#EF4444"/>
  <rect x="145" y="145" width="15" height="15" fill="#DC2626"/>
  
  <!-- 区块链连接线 -->
  <path d="M40 57.5 H160 M40 92.5 H160 M40 127.5 H160" 
        stroke="#B91C1C" stroke-width="1" stroke-dasharray="4 4"/>
  
  <!-- 区块链节点 -->
  <rect x="52.5" y="50" width="10" height="15" fill="#B91C1C"/>
  <rect x="87.5" y="85" width="10" height="15" fill="#B91C1C"/>
  <rect x="122.5" y="120" width="10" height="15" fill="#B91C1C"/>
</svg> 